<svg xmlns="http://www.w3.org/2000/svg" xmlns:xlink="http://www.w3.org/1999/xlink" width="1024" zoomAndPan="magnify" viewBox="0 0 768 1151.999944" height="1536" preserveAspectRatio="xMidYMid meet" version="1.0"><defs><filter x="0%" y="0%" width="100%" height="100%" id="7c2d7d235b"><feColorMatrix values="0 0 0 0 1 0 0 0 0 1 0 0 0 0 1 0 0 0 1 0" color-interpolation-filters="sRGB"/></filter><mask id="bf30e1e525"><g filter="url(#7c2d7d235b)"><rect x="-76.8" width="921.6" fill="#000000" y="-115.199994" height="1382.399933" fill-opacity="0.08"/></g></mask><clipPath id="7dde442f2e"><path d="M 0.800781 0.601562 L 308 0.601562 L 308 168.363281 L 0.800781 168.363281 Z M 0.800781 0.601562 " clip-rule="nonzero"/></clipPath><clipPath id="be5d003b73"><rect x="0" width="308" y="0" height="169"/></clipPath></defs><g mask="url(#bf30e1e525)"><g transform="matrix(1, 0, 0, 1, 436, 267)"><g clip-path="url(#be5d003b73)"><g clip-path="url(#7dde442f2e)"><path fill="#000000" d="M 307.199219 97.449219 C 306.957031 96.347656 305.976562 86.476562 305.605469 82.125 C 305.238281 76.671875 303.339844 66.621094 301.195312 58.160156 C 299.171875 50.253906 297.640625 46.332031 294.820312 41.980469 C 294.207031 41 293.289062 39.40625 292.734375 38.484375 C 291.019531 35.421875 286.605469 29.90625 283.726562 27.207031 C 280.109375 23.835938 275.511719 20.773438 269.75 17.890625 C 257.554688 11.882812 239.65625 8.144531 208.398438 5.082031 C 204.351562 4.714844 197.425781 3.976562 193.074219 3.488281 C 172.601562 1.28125 156.605469 0.363281 144.40625 0.667969 C 132.882812 0.972656 128.59375 1.21875 114.066406 2.8125 C 95.617188 4.773438 91.082031 5.082031 76.25 5.632812 C 60.988281 6.183594 54.613281 6.734375 47.195312 8.085938 C 29.726562 11.273438 20.226562 16.175781 14.773438 24.757812 C 12.871094 27.699219 9.992188 34.011719 8.335938 38.730469 C 2.941406 54.421875 0.921875 72.378906 0.921875 104.683594 C 0.980469 132.140625 1.839844 140.292969 5.761719 148.078125 C 7.480469 151.570312 11.277344 155.25 14.773438 156.902344 C 20.105469 159.417969 24.210938 159.84375 53.632812 160.949219 C 83.972656 162.050781 94.636719 162.296875 116.949219 162.542969 C 136.929688 162.726562 161.015625 163.339844 180.261719 164.136719 C 188.660156 164.503906 193.503906 164.871094 225.558594 167.382812 C 236.222656 168.242188 241.679688 168.488281 248.851562 168.488281 C 276.984375 168.550781 289.242188 164.199219 297.578125 151.265625 C 302.296875 144.03125 303.769531 140.109375 305.421875 130.484375 C 306.648438 123.5 307.875 100.757812 307.199219 97.449219 Z M 307.199219 97.449219 " fill-opacity="1" fill-rule="nonzero"/></g></g></g></g><path fill="#000000" d="M 393.835938 19.757812 C 353.054688 23.582031 319.167969 63.207031 309.945312 117.851562 C 309.054688 123.125 308.0625 136.28125 307.738281 147.089844 C 307.238281 163.882812 307.472656 168.664062 309.355469 180.011719 C 316.023438 220.171875 331.988281 247.738281 357.28125 262.761719 C 383.246094 278.1875 419.375 278.226562 443.710938 262.855469 C 451.667969 257.832031 464.746094 244.519531 470.457031 235.640625 C 479.371094 221.765625 487.632812 200.210938 491.242188 181.402344 C 494.171875 166.148438 494.441406 133.890625 491.78125 117.351562 C 486.328125 83.441406 471.238281 53.226562 451.640625 36.972656 C 440.476562 27.71875 426.5625 21.367188 414.890625 20.203125 C 403.800781 19.09375 401.433594 19.046875 393.835938 19.757812 M 186.015625 20.410156 C 182.542969 20.933594 180.886719 22.984375 160.824219 51.589844 C 144.683594 74.605469 122.4375 105.839844 98.101562 139.652344 C 89.0625 152.210938 80.125 164.917969 78.234375 167.890625 L 74.800781 173.292969 L 74.800781 193.714844 C 74.800781 205.6875 75.253906 214.980469 75.894531 216.175781 C 78.636719 221.300781 79.980469 221.429688 131.035156 221.429688 L 178.878906 221.429688 L 178.878906 243.777344 C 178.878906 273.726562 176.441406 271.34375 207.027344 271.34375 C 232.585938 271.34375 235.097656 270.800781 237.175781 264.84375 C 237.878906 262.824219 238.351562 253.21875 238.351562 240.917969 L 238.351562 220.367188 L 251.144531 220.367188 C 263.308594 220.367188 264.0625 220.238281 266.542969 217.757812 C 269.136719 215.167969 269.148438 215.042969 269.148438 194.007812 C 269.148438 166.222656 269.8125 167.265625 252.117188 167.265625 C 240.84375 167.265625 239.375 167.050781 238.421875 165.269531 C 237.734375 163.992188 237.335938 138.671875 237.304688 94.96875 C 237.253906 19.117188 237.613281 22.847656 230.132812 20.769531 C 226.367188 19.722656 192.398438 19.449219 186.015625 20.410156 M 634.746094 22.683594 C 633.726562 23.769531 627.835938 32.011719 621.65625 41.003906 L 585.613281 93.457031 C 556.785156 135.414062 550.230469 144.898438 543.046875 155.054688 C 539.941406 159.449219 536.867188 163.867188 533.832031 168.308594 L 529.875 174.132812 L 529.964844 193.574219 C 530.046875 211.3125 530.242188 213.269531 532.191406 215.894531 C 536.289062 221.414062 536.09375 221.394531 585.894531 221.414062 L 632.359375 221.429688 L 632.359375 264.808594 L 635.109375 268.074219 L 637.855469 271.34375 L 658.953125 271.34375 C 681.019531 271.34375 684.285156 270.792969 686.40625 266.710938 C 687.136719 265.3125 687.691406 256.070312 687.851562 242.667969 L 688.113281 220.898438 L 701.496094 220.367188 C 710.589844 220.003906 715.4375 219.371094 716.625 218.382812 C 719.925781 215.632812 720.738281 209.640625 720.351562 190.851562 C 719.859375 167.140625 720.550781 168.007812 701.628906 167.265625 L 688.113281 166.734375 L 687.582031 95.753906 L 687.050781 24.769531 L 684.542969 22.738281 C 682.25 20.882812 680.101562 20.710938 659.320312 20.710938 C 638.558594 20.710938 636.445312 20.878906 634.746094 22.683594 M 387.566406 31.203125 C 365.882812 35.890625 345.53125 53.832031 332.605469 79.652344 C 326.742188 91.363281 321.433594 109.292969 319.503906 123.898438 C 317.171875 141.5625 317.960938 172.839844 321.109375 187.558594 C 325.40625 207.621094 335.078125 228.125 346.15625 240.648438 C 358.355469 254.433594 380.628906 263.910156 400.839844 263.910156 C 410.089844 263.910156 424.433594 260.761719 432.195312 257.027344 C 445.457031 250.648438 459.871094 235 468.734375 217.363281 C 473.648438 207.578125 479.070312 190.59375 481.167969 178.414062 C 483.660156 163.957031 483.695312 130.429688 481.242188 116.203125 C 473.257812 69.980469 447.535156 37.238281 413.796875 30.355469 C 406.019531 28.765625 397.578125 29.039062 387.566406 31.203125 M 187.21875 33.1875 C 184.980469 35.632812 166.070312 62.109375 146.070312 90.800781 C 143.425781 94.597656 136.902344 103.679688 131.578125 110.980469 C 124.921875 120.140625 118.328125 129.34375 111.796875 138.59375 C 106.238281 146.476562 98.011719 158.015625 93.511719 164.230469 L 85.332031 175.53125 L 85.171875 192.375 L 85.011719 209.214844 L 133.804688 209.746094 C 169.605469 210.136719 183.203125 210.625 184.875 211.582031 C 188.746094 213.800781 189.5 218.46875 189.5 240.195312 L 189.5 260.773438 L 208.351562 260.480469 L 227.199219 260.191406 L 227.730469 236.476562 C 228.222656 214.5625 228.421875 212.640625 230.324219 211.253906 C 231.839844 210.144531 235.851562 209.746094 245.4375 209.746094 C 260.972656 209.746094 259.820312 211.238281 259.367188 191.691406 L 259.0625 178.417969 L 245.421875 177.886719 C 232.691406 177.390625 231.652344 177.1875 229.757812 174.847656 C 227.808594 172.4375 227.730469 169.628906 227.730469 101.949219 C 227.730469 38.742188 227.5625 31.492188 226.050781 30.914062 C 225.128906 30.558594 216.613281 30.269531 207.132812 30.269531 L 189.898438 30.269531 Z M 640.082031 33.71875 C 637.914062 36.074219 628.894531 48.992188 596.523438 96.113281 C 576.632812 125.070312 577.871094 123.285156 558.53125 150.804688 C 549.914062 163.070312 542.179688 174.710938 541.347656 176.671875 C 540.347656 179.039062 540.011719 182.441406 540.355469 186.761719 C 540.640625 190.351562 540.910156 196.988281 540.949219 201.515625 L 541.023438 209.746094 L 637.765625 209.746094 L 640.371094 212.355469 C 642.976562 214.960938 642.976562 214.964844 642.976562 237.839844 L 642.976562 260.722656 L 659.375 260.722656 C 668.394531 260.722656 676.027344 260.3125 676.339844 259.808594 C 676.652344 259.308594 677.050781 248.738281 677.234375 236.324219 C 677.644531 208.035156 676.425781 209.746094 696.132812 209.746094 C 703.628906 209.746094 709.917969 209.386719 710.109375 208.949219 C 710.300781 208.511719 710.292969 201.34375 710.09375 193.019531 L 709.726562 177.886719 L 696.183594 177.886719 C 683.402344 177.886719 682.515625 177.75 680.332031 175.429688 L 678.023438 172.96875 L 678.023438 103.828125 C 678.023438 65.800781 677.734375 33.933594 677.378906 33.011719 C 676.828125 31.574219 674.238281 31.328125 659.511719 31.328125 C 643.007812 31.328125 642.195312 31.429688 640.082031 33.71875 M 392.34375 62.703125 C 380.761719 65.921875 371.917969 73.808594 364.320312 87.6875 C 359.261719 96.925781 356.894531 104.078125 354.277344 118.007812 C 351.160156 134.589844 350.621094 144.488281 351.894531 161.957031 C 353.203125 179.921875 354.796875 188.03125 359.296875 199.683594 C 370.550781 228.800781 397.765625 240.996094 419.757812 226.785156 C 428.160156 221.351562 433.03125 215.324219 439.222656 202.699219 C 446.519531 187.816406 448.679688 177.207031 449.386719 152.855469 C 450.5 114.472656 443.957031 89.445312 428.789062 74.050781 C 417.9375 63.035156 405.304688 59.101562 392.34375 62.703125 M 394.34375 73.152344 C 384.277344 76.75 378.480469 82.488281 372.101562 95.175781 C 365.484375 108.339844 362.59375 122.441406 361.867188 145.097656 C 360.613281 184.191406 368.820312 207.613281 387.542969 218.351562 C 394.351562 222.253906 404.640625 222.648438 411.816406 219.277344 C 423.367188 213.847656 432.941406 197.21875 437.609375 174.496094 C 439.929688 163.179688 440.265625 130.863281 438.167969 120.007812 C 434.539062 101.199219 429.566406 89.886719 421.160156 81.324219 C 412.585938 72.59375 403.585938 69.851562 394.34375 73.152344 M 180.324219 91.6875 C 178.652344 93.378906 174.417969 98.898438 170.914062 103.953125 C 167.410156 109.003906 156.269531 124.722656 146.15625 138.875 C 122.515625 171.972656 123.09375 171.027344 124.570312 174.269531 C 125.21875 175.699219 126.984375 177.335938 128.488281 177.90625 C 132.335938 179.371094 179.8125 179.253906 184.0625 177.773438 C 190.425781 175.554688 190.5625 174.609375 190.5625 131.945312 C 190.5625 91.179688 190.507812 90.722656 185.632812 89.28125 C 183.976562 88.789062 182.535156 89.441406 180.324219 91.6875 M 633.960938 92.660156 C 628.9375 98.035156 582.546875 164.609375 580.128906 169.914062 C 578.503906 173.480469 581.269531 177.570312 585.886719 178.429688 C 587.789062 178.785156 600.261719 178.925781 613.601562 178.746094 L 637.855469 178.417969 L 640.417969 175.4375 L 642.976562 172.457031 L 642.976562 132.199219 C 642.976562 93.480469 642.898438 91.898438 640.925781 90.839844 C 637.878906 89.210938 636.964844 89.449219 633.960938 92.660156 M 176.085938 113.808594 C 172.789062 119.03125 146.769531 155.976562 144.144531 159.164062 C 142.761719 160.839844 140.980469 163.46875 140.183594 165.003906 L 138.738281 167.796875 L 179.410156 166.734375 L 179.101562 139.171875 C 178.933594 124.011719 178.613281 111.425781 178.390625 111.199219 C 178.167969 110.976562 177.132812 112.152344 176.085938 113.808594 M 622.800781 125.394531 C 617.835938 132.714844 609.351562 144.902344 603.949219 152.476562 C 598.546875 160.046875 594.125 166.472656 594.125 166.753906 C 594.125 167.035156 602.726562 167.265625 613.242188 167.265625 L 632.359375 167.265625 L 632.359375 139.652344 C 632.359375 124.46875 632.238281 112.050781 632.09375 112.0625 C 631.945312 112.074219 627.765625 118.070312 622.800781 125.394531 M 169.457031 321.917969 C 162.375 325.449219 159.152344 330.246094 157.011719 340.453125 C 152.542969 361.75 162.402344 379.679688 178.570312 379.660156 C 186.253906 379.652344 191.09375 377.894531 194.675781 373.816406 C 198.90625 369 200.335938 363.796875 199.925781 354.710938 L 199.589844 347.277344 L 189.65625 346.96875 C 178.378906 346.621094 176.472656 347.453125 176.964844 352.496094 C 177.277344 355.695312 177.425781 355.78125 183.394531 356.089844 L 189.5 356.410156 L 189.5 360.402344 C 189.5 367.023438 184.320312 370.96875 177.339844 369.65625 C 170.820312 368.433594 167.265625 361.4375 167.324219 349.929688 C 167.363281 341.691406 168.824219 337.222656 172.871094 332.9375 C 177.046875 328.511719 182.703125 328.511719 187.742188 332.9375 C 191.902344 336.589844 194.78125 336.964844 197.300781 334.183594 C 199.804688 331.414062 199.535156 330.289062 195.238281 325.527344 C 188.925781 318.542969 179.015625 317.15625 169.457031 321.917969 M 356.644531 321.164062 C 345.859375 326.0625 340.296875 342.042969 343.492188 358.96875 C 345.78125 371.105469 354.527344 379.621094 364.730469 379.644531 C 375.34375 379.667969 381.292969 375.914062 386.054688 366.195312 C 388.210938 361.789062 388.558594 359.472656 388.589844 349.398438 C 388.625 338.796875 388.359375 337.175781 385.738281 331.832031 C 384.148438 328.597656 381.519531 324.976562 379.894531 323.785156 C 373.148438 318.839844 364.027344 317.8125 356.644531 321.164062 M 533.058594 321.140625 C 527.699219 323.613281 524.78125 326.78125 521.699219 333.484375 C 519.648438 337.9375 519.257812 340.550781 519.257812 349.929688 C 519.253906 360.042969 519.535156 361.65625 522.277344 367.242188 C 526.09375 375.011719 531.371094 378.777344 539.375 379.441406 C 550.011719 380.324219 557.921875 375.5625 562.363281 365.601562 C 564.4375 360.960938 564.859375 358.234375 564.867188 349.398438 C 564.878906 338.015625 562.832031 331.226562 557.699219 325.644531 C 554.316406 321.964844 547.589844 319.179688 542.085938 319.179688 C 539.457031 319.179688 535.398438 320.0625 533.058594 321.140625 M 67.367188 320.933594 C 63.394531 322.351562 63.121094 324.257812 63.121094 350.453125 C 63.121094 368.949219 63.472656 376.410156 64.394531 377.332031 C 65.09375 378.03125 67.484375 378.605469 69.703125 378.605469 L 73.738281 378.605469 L 73.738281 356.304688 L 81.757812 356.304688 C 90.910156 356.304688 94.632812 354.832031 98.554688 349.667969 C 105.882812 340.007812 101.539062 324.355469 90.660156 321.234375 C 86.886719 320.15625 70.15625 319.9375 67.367188 320.933594 M 121.214844 322.003906 C 120.886719 323.050781 116.546875 335.859375 111.570312 350.460938 C 106.589844 365.0625 102.910156 377.398438 103.382812 377.875 C 103.859375 378.351562 106.308594 378.589844 108.824219 378.40625 C 113.375 378.074219 113.410156 378.042969 115.429688 371.96875 L 117.460938 365.859375 L 136.222656 365.859375 L 138.253906 371.96875 L 140.28125 378.074219 L 145.109375 378.394531 C 148.578125 378.621094 150.105469 378.273438 150.53125 377.164062 C 150.855469 376.3125 146.976562 363.265625 141.902344 348.171875 L 132.683594 320.726562 L 127.242188 320.410156 C 122.769531 320.148438 121.699219 320.433594 121.214844 322.003906 M 213.351562 321.515625 C 213.0625 322.269531 212.953125 335.300781 213.109375 350.480469 L 213.394531 378.074219 L 230.625 378.367188 L 247.855469 378.65625 L 248.507812 376.058594 C 250.054688 369.902344 249.503906 369.605469 235.949219 369.277344 L 223.484375 368.980469 L 223.484375 354.253906 L 233.839844 353.953125 L 244.191406 353.648438 L 244.519531 349.132812 L 244.847656 344.621094 L 223.484375 344.621094 L 223.484375 329.753906 L 235.675781 329.753906 C 247.691406 329.753906 247.878906 329.714844 248.515625 327.183594 C 250.117188 320.800781 249.996094 320.753906 231.144531 320.433594 C 217.804688 320.207031 213.761719 320.453125 213.351562 321.515625 M 288.769531 321.480469 C 288.472656 322.253906 288.359375 335.300781 288.515625 350.480469 L 288.796875 378.074219 L 298.355469 378.074219 L 298.886719 359.800781 L 299.417969 341.523438 L 305.789062 352.832031 C 309.292969 359.050781 314.25 367.417969 316.804688 371.421875 L 321.449219 378.707031 L 332.339844 378.074219 L 332.621094 349.074219 L 332.90625 320.078125 L 322.78125 320.726562 L 322.203125 359.84375 L 317.070312 350.90625 C 314.246094 345.988281 309.105469 337.1875 305.640625 331.347656 L 299.347656 320.726562 L 294.328125 320.402344 C 290.902344 320.179688 289.136719 320.523438 288.769531 321.480469 M 395.734375 324.707031 L 396.0625 329.222656 L 403.230469 329.535156 C 407.171875 329.707031 410.496094 329.945312 410.613281 330.066406 C 410.730469 330.1875 411.089844 341.035156 411.410156 354.179688 L 411.992188 378.074219 L 415.578125 378.417969 C 417.550781 378.605469 419.609375 378.316406 420.148438 377.773438 C 420.691406 377.230469 421.230469 366.324219 421.34375 353.535156 L 421.550781 330.285156 L 437.480469 329.222656 L 437.804688 324.707031 L 438.132812 320.195312 L 395.40625 320.195312 Z M 475.3125 321.625 C 474.433594 322.691406 474.164062 330.929688 474.367188 350.59375 L 474.648438 378.074219 L 484.207031 378.074219 L 484.738281 366.390625 L 485.269531 354.710938 L 494.546875 354.402344 C 502.644531 354.136719 503.972656 353.820312 504.992188 351.914062 C 505.632812 350.714844 505.875 348.601562 505.527344 347.214844 C 504.925781 344.824219 504.40625 344.683594 495.082031 344.394531 L 485.269531 344.089844 L 484.957031 336.957031 L 484.644531 329.820312 L 497.167969 329.519531 L 509.695312 329.222656 L 509.695312 320.726562 L 493.121094 320.433594 C 479.953125 320.203125 476.292969 320.449219 475.3125 321.625 M 578.902344 320.902344 C 578.515625 321.292969 578.195312 331.226562 578.195312 342.980469 C 578.195312 363.03125 578.34375 364.640625 580.585938 369.078125 C 584.667969 377.160156 593.226562 380.839844 604.136719 379.203125 C 610.628906 378.230469 615.28125 374.773438 618.488281 368.550781 C 621.140625 363.40625 621.207031 362.738281 621.207031 342 L 621.207031 320.726562 L 616.246094 320.40625 L 611.28125 320.085938 L 610.933594 340.582031 C 610.628906 358.613281 610.339844 361.492188 608.527344 364.488281 C 604.695312 370.820312 596.9375 371.644531 591.871094 366.253906 C 589.410156 363.636719 589.339844 363.027344 589.003906 341.882812 L 588.660156 320.195312 L 584.136719 320.195312 C 581.648438 320.195312 579.292969 320.511719 578.902344 320.902344 M 633.898438 321.539062 C 633.617188 322.28125 633.511719 335.300781 633.667969 350.480469 L 633.953125 378.074219 L 643.507812 378.074219 L 644.570312 338.949219 L 653.066406 353.613281 C 667.375 378.3125 667.183594 378.074219 672.707031 378.074219 L 677.445312 378.074219 L 678.285156 373.054688 C 678.75 370.292969 679 357.390625 678.839844 344.382812 L 678.554688 320.726562 L 668.996094 320.726562 L 668.707031 339.046875 C 668.4375 355.933594 667.6875 360.292969 665.863281 355.507812 C 664.792969 352.699219 648.160156 324.183594 646.351562 322.054688 C 644.4375 319.800781 634.722656 319.398438 633.898438 321.539062 M 691.789062 322.960938 C 691.195312 324.523438 690.777344 336.40625 690.832031 350.304688 C 690.910156 371.136719 691.183594 375.171875 692.605469 376.746094 C 693.972656 378.261719 696.097656 378.605469 704.050781 378.605469 C 714.828125 378.605469 719.253906 377.511719 724.617188 373.527344 C 735.742188 365.261719 737.480469 339.1875 727.65625 327.996094 C 722.210938 321.796875 717.546875 320.246094 704.28125 320.21875 C 692.925781 320.195312 692.832031 320.214844 691.789062 322.960938 M 73.738281 338.25 L 73.738281 346.746094 L 79.996094 346.746094 C 88.03125 346.746094 91.15625 344.515625 91.15625 338.777344 C 91.15625 332.871094 87.140625 329.753906 79.523438 329.753906 L 73.738281 329.753906 Z M 359.066406 332.753906 C 355.382812 336.601562 354.105469 341.183594 354.132812 350.453125 C 354.167969 361.769531 358.886719 370.117188 365.234375 370.105469 C 368.925781 370.097656 374.339844 365.996094 376.121094 361.855469 C 378.546875 356.226562 378.542969 340.964844 376.121094 336.457031 C 372.183594 329.128906 364.199219 327.394531 359.066406 332.753906 M 536.503906 330.902344 C 535.476562 331.503906 533.605469 333.996094 532.34375 336.449219 C 530.480469 340.066406 530.082031 342.542969 530.222656 349.628906 C 530.324219 354.828125 531.089844 360.097656 532.125 362.679688 C 536.21875 372.914062 548.574219 372.003906 552.679688 361.164062 C 554.613281 356.066406 554.289062 341.257812 552.148438 336.746094 C 549.316406 330.78125 541.640625 327.914062 536.503906 330.902344 M 701.628906 349.132812 L 701.921875 368.515625 L 707.476562 368.472656 C 717.613281 368.390625 722.878906 362 723.054688 349.5625 C 723.238281 336.394531 717.664062 329.757812 706.410156 329.753906 L 701.339844 329.753906 Z M 124.886719 340.636719 C 124.300781 343.121094 123.101562 347.375 122.226562 350.09375 C 120.671875 354.910156 120.691406 355.050781 122.941406 355.65625 C 125.886719 356.445312 133.210938 356.488281 133.210938 355.714844 C 133.210938 353.761719 127.382812 336.125 126.738281 336.125 C 126.304688 336.125 125.472656 338.15625 124.886719 340.636719 M 344 433.921875 C 335.3125 434.75 320.621094 438.265625 310.039062 442.054688 C 285.5625 450.816406 263.023438 467.207031 248.039062 487.136719 C 243.867188 492.6875 243.007812 493.285156 237.566406 494.417969 C 224.714844 497.085938 215.453125 503.292969 197.375 521.359375 C 181.0625 537.660156 162.835938 561.597656 142.71875 593.128906 C 131.535156 610.660156 126.230469 620.875 122.175781 632.683594 C 114.917969 653.816406 116.800781 669.808594 128.472656 686.164062 C 139.519531 701.644531 162.363281 710.246094 178.183594 704.882812 L 184.390625 702.777344 L 183.742188 706.097656 C 183.386719 707.925781 182.816406 713.960938 182.480469 719.507812 C 181.4375 736.632812 185.523438 750.390625 195.140625 762.136719 C 201.371094 769.746094 208.234375 774.71875 217.644531 778.441406 C 223.765625 780.867188 226.761719 781.394531 234.636719 781.433594 C 241.191406 781.46875 245.4375 780.941406 248.152344 779.765625 C 252.632812 777.820312 252.296875 777.539062 254.835938 785.351562 C 255.878906 788.566406 257.417969 792.25 258.253906 793.535156 C 259.613281 795.632812 259.496094 796.585938 257.132812 802.5625 C 243.621094 836.722656 237.058594 872.582031 233.558594 931.378906 C 232.515625 948.90625 228.828125 987.984375 227.132812 999.527344 C 224.292969 1018.851562 218.242188 1035.441406 213.648438 1036.496094 C 212.339844 1036.796875 207.078125 1038 201.953125 1039.167969 C 188.878906 1042.144531 186.027344 1043.558594 178.457031 1050.832031 C 167.746094 1061.113281 163.285156 1073.089844 165.261719 1086.25 C 167.785156 1103.039062 181.449219 1111.046875 211.824219 1113.550781 C 242.707031 1116.097656 263.808594 1111.246094 279.242188 1098.0625 L 284.878906 1093.246094 L 317.472656 1092.863281 L 318.667969 1097.675781 C 320.40625 1104.679688 322.554688 1108.296875 327.90625 1113.226562 C 333.84375 1118.699219 338.9375 1121.320312 349.519531 1124.347656 C 356.75 1126.417969 360.375 1126.726562 377.476562 1126.757812 C 399.410156 1126.789062 404.457031 1125.953125 416.390625 1120.3125 C 425.386719 1116.058594 433.085938 1110.152344 437.480469 1104.125 C 439.230469 1101.722656 440.976562 1099.746094 441.355469 1099.730469 C 441.734375 1099.71875 444.519531 1101.371094 447.542969 1103.40625 C 460.027344 1111.804688 480.164062 1115.0625 514.476562 1114.234375 C 545.605469 1113.480469 564.308594 1110.324219 580.851562 1103.042969 L 587.222656 1100.238281 L 665.730469 1099.175781 L 667.363281 1096.195312 C 670.511719 1090.453125 668.796875 1090.148438 633.21875 1090.148438 C 615.804688 1090.148438 601.558594 1089.867188 601.558594 1089.519531 C 601.558594 1089.175781 603.195312 1086.980469 605.195312 1084.644531 C 609.171875 1080 615.433594 1068.5625 617.441406 1062.269531 C 618.390625 1059.308594 619.445312 1058.121094 621.554688 1057.644531 C 632.90625 1055.082031 638.25 1053.347656 646.046875 1049.703125 C 695.234375 1026.726562 726.390625 974.125 723.363281 919.164062 C 721.257812 880.882812 699.277344 848.691406 685.363281 863.515625 C 682.8125 866.230469 682.804688 866.339844 682.753906 890.84375 C 682.695312 919.753906 681.4375 926.441406 672.734375 944.121094 C 666.519531 956.746094 659.542969 966.21875 649.46875 975.722656 C 643.328125 981.515625 630.363281 991.382812 628.890625 991.382812 C 628.667969 991.382812 628.402344 988.207031 628.296875 984.324219 C 628.03125 974.707031 626.675781 966.839844 622.375 949.964844 C 612.738281 912.128906 593.261719 870.566406 554.445312 805 C 536.769531 775.144531 490.925781 708.550781 486.25 705.933594 C 484.699219 705.066406 484.753906 704.15625 486.828125 696.046875 C 490.34375 682.300781 490.976562 679.160156 491.742188 671.71875 L 492.449219 664.816406 L 496.898438 673.972656 C 504.484375 689.578125 514.292969 700.6875 525.074219 705.890625 C 532.085938 709.273438 548.65625 709.292969 557.046875 705.933594 C 577.460938 697.753906 599.582031 676.980469 610.386719 655.84375 C 619.953125 637.125 620.824219 615.675781 612.621094 600.6875 C 606.3125 589.15625 574.964844 548 552.578125 521.859375 C 533.644531 499.753906 514.949219 483.488281 499.640625 475.808594 C 486.246094 469.089844 471.5 467.480469 461.496094 471.640625 L 457.898438 473.136719 L 449.25 464.898438 C 424.542969 441.371094 385.757812 429.957031 344 433.925781 M 339.496094 445.042969 C 312.714844 449.367188 284.457031 463.171875 267.109375 480.410156 C 259.394531 488.082031 245.117188 508.496094 239.097656 520.46875 C 229.582031 539.402344 221.136719 563.273438 216.957031 583.042969 C 214.957031 592.480469 214.484375 597.988281 214.484375 611.714844 C 214.484375 626.9375 214.742188 629.410156 216.980469 635.457031 C 221.171875 646.78125 221.5625 647.304688 224.597656 645.621094 C 229.195312 643.078125 235.164062 643.96875 235.164062 647.199219 C 235.164062 649.226562 230.824219 653.566406 222.953125 659.410156 C 205.410156 672.429688 191.605469 699.480469 191.628906 720.792969 C 191.652344 739.976562 200.523438 757.496094 214.304688 765.554688 C 224.625 771.59375 239.722656 773.390625 247.066406 769.457031 C 251.972656 766.824219 256.175781 766.039062 258.542969 767.304688 C 259.640625 767.890625 261.089844 771.128906 262.152344 775.355469 C 267.375 796.148438 277.597656 800.945312 300.972656 793.574219 C 305.5 792.144531 310.882812 791.367188 316.453125 791.339844 C 324.5625 791.300781 325.417969 791.53125 333.445312 795.921875 C 353.667969 806.976562 359.007812 808.726562 372.484375 808.707031 C 385.871094 808.683594 393.863281 805.253906 406.824219 793.949219 C 411.578125 789.804688 415.9375 786.414062 416.519531 786.414062 C 418.554688 786.414062 420.191406 789.574219 419.527344 792.21875 C 418.382812 796.78125 406.980469 807.859375 399.03125 812.132812 C 389.277344 817.375 380.347656 819.371094 368.996094 818.847656 C 354.191406 818.160156 345.070312 815.222656 332.203125 806.992188 C 328.738281 804.773438 323.902344 802.796875 320.320312 802.128906 C 314.898438 801.121094 312.894531 801.351562 300.558594 804.40625 C 285.523438 808.128906 280.082031 808.132812 271.539062 804.425781 C 269.058594 803.347656 267.027344 802.589844 267.027344 802.746094 C 267.027344 802.898438 264.96875 808.964844 262.453125 816.226562 C 251.792969 846.984375 246.867188 874.671875 244.230469 918.632812 C 240.152344 986.644531 236.734375 1011.96875 228.765625 1033.183594 C 224.90625 1043.457031 222.640625 1045.1875 209.675781 1047.742188 C 203.542969 1048.953125 196.53125 1050.820312 194.089844 1051.894531 C 187.988281 1054.585938 180.519531 1061.734375 177.679688 1067.597656 C 173.242188 1076.761719 175.09375 1089.695312 181.6875 1095.644531 C 183.585938 1097.355469 183.664062 1097.179688 183.761719 1090.863281 C 183.9375 1079.941406 189.117188 1070.644531 197.40625 1066.363281 C 199.6875 1065.1875 200.914062 1065.058594 201.921875 1065.894531 C 204.335938 1067.898438 203.433594 1070.898438 199.046875 1075.417969 C 191.261719 1083.4375 189.824219 1096.097656 196.230469 1100.183594 C 198 1101.308594 210.742188 1103.953125 214.394531 1103.953125 C 214.722656 1103.953125 214.992188 1100.96875 214.992188 1097.316406 C 215 1088.992188 216.230469 1084.515625 220.261719 1078.160156 C 224.035156 1072.210938 229.148438 1068.75 233.574219 1069.148438 C 238.710938 1069.617188 238.328125 1073.125 232.5 1078.953125 C 226.816406 1084.632812 224.546875 1089.359375 224.546875 1095.492188 C 224.546875 1102.914062 225.699219 1103.957031 233.875 1103.9375 C 250.050781 1103.894531 264.355469 1098.40625 274.675781 1088.289062 C 285.480469 1077.691406 289.523438 1067.144531 296.769531 1030.675781 C 300.625 1011.253906 303.054688 996.042969 307.394531 964.15625 L 308.71875 954.453125 L 302.265625 941.324219 C 294.640625 925.808594 289.855469 911.40625 288.238281 899.109375 C 286.78125 888.042969 287.925781 884.117188 292.621094 884.117188 C 295.996094 884.117188 296.175781 884.542969 297.339844 895.207031 C 299.03125 910.699219 307.742188 933.972656 317.488281 949.039062 C 321.882812 955.835938 334.355469 972.917969 335.996094 974.390625 C 336.320312 974.679688 339.15625 978.027344 342.300781 981.824219 C 348.644531 989.488281 353.480469 994.183594 366.949219 1005.722656 L 376.066406 1013.539062 L 377.28125 1005.378906 C 381.6875 975.71875 383.585938 951.3125 383.769531 922.066406 C 383.851562 909.347656 384.371094 897.746094 384.925781 896.285156 C 386.34375 892.558594 388.898438 891.886719 391.554688 894.539062 C 393.699219 896.6875 393.769531 897.671875 393.605469 923.390625 C 393.402344 954.605469 390.839844 985.816406 386.40625 1011.027344 C 381.355469 1039.75 378.5 1050.675781 375.050781 1054.464844 C 373.421875 1056.253906 368.402344 1058.410156 358.8125 1061.4375 C 346.859375 1065.214844 344.160156 1066.5 339.394531 1070.667969 C 330.730469 1078.246094 326.644531 1087.988281 328.773438 1095.988281 C 330.023438 1100.683594 336.59375 1110.328125 338.535156 1110.320312 C 339.339844 1110.316406 339.796875 1107.980469 339.839844 1103.683594 C 339.949219 1093.117188 346.3125 1082.101562 354.246094 1078.75 C 359.316406 1076.601562 361.566406 1082.566406 357.183594 1086.53125 C 353.570312 1089.800781 350.730469 1096.449219 350.132812 1103.046875 C 349.214844 1113.164062 352.339844 1115.664062 367.917969 1117.246094 L 374.820312 1117.949219 L 374.824219 1107.5 C 374.828125 1095.367188 376.511719 1091.0625 383.84375 1084.4375 C 388.375 1080.339844 390.808594 1079.886719 392.636719 1082.792969 C 393.425781 1084.046875 392.875 1085.585938 390.421875 1088.976562 C 388.625 1091.457031 386.355469 1095.894531 385.375 1098.835938 C 383.21875 1105.328125 383.757812 1114.289062 386.417969 1116.238281 C 389.796875 1118.707031 406.574219 1115.214844 415.351562 1110.210938 C 429.347656 1102.238281 441.21875 1082.507812 448.511719 1055.101562 C 451.898438 1042.359375 453.160156 1036.046875 459.226562 1001.46875 C 463.730469 975.808594 464.769531 970.214844 469.476562 946.246094 C 474.964844 918.324219 479.9375 896.691406 481.570312 893.644531 C 483.230469 890.542969 487.679688 890.917969 489.214844 894.285156 C 490.253906 896.5625 489.894531 899.359375 487.070312 911.011719 C 481.722656 933.082031 474.734375 968.578125 467.28125 1011.558594 C 464.695312 1026.453125 462.097656 1040.777344 461.507812 1043.390625 C 460.914062 1046.003906 460.597656 1048.308594 460.800781 1048.511719 C 461.003906 1048.710938 464.441406 1047.84375 468.441406 1046.578125 C 473.234375 1045.0625 479.753906 1044.082031 487.570312 1043.703125 L 499.429688 1043.128906 L 495.980469 1039.582031 C 491.789062 1035.265625 486.839844 1025.359375 483.554688 1014.707031 C 481.496094 1008.035156 481.117188 1004.507812 481.160156 992.445312 C 481.25 969.042969 486.324219 950.695312 497.410156 933.714844 C 508.664062 916.476562 525.707031 907.308594 543.445312 908.957031 C 552.632812 909.8125 566.363281 915.976562 571.765625 921.675781 C 574.972656 925.058594 575.296875 925.890625 574.394531 928.445312 C 573.832031 930.046875 572.546875 931.515625 571.535156 931.710938 C 570.527344 931.90625 566.097656 929.652344 561.691406 926.707031 C 551.757812 920.0625 547.679688 918.808594 537.722656 919.328125 C 527.371094 919.875 521.21875 922.917969 512.050781 932.027344 C 504.070312 939.964844 498.449219 950.34375 494.28125 964.832031 C 491.066406 976 490.128906 1000.800781 492.558594 1010.273438 C 495.015625 1019.851562 498.980469 1027.625 504.578125 1033.851562 C 510.730469 1040.695312 515.414062 1043.101562 529.257812 1046.523438 C 539.386719 1049.027344 540.410156 1049.511719 541.308594 1052.21875 C 543.5625 1059.019531 538.125 1059.789062 517.234375 1055.632812 C 502.019531 1052.605469 492.140625 1052.3125 479.960938 1054.523438 C 464.523438 1057.320312 459.269531 1059.679688 456.84375 1064.878906 C 453.894531 1071.210938 446.28125 1091.339844 446.683594 1091.742188 C 448.246094 1093.304688 460.804688 1098.707031 462.242188 1098.433594 C 463.359375 1098.222656 464.132812 1096.910156 464.304688 1094.917969 C 465.011719 1086.660156 468.058594 1078.410156 472.082031 1073.839844 C 476.589844 1068.71875 479.484375 1067.40625 482.089844 1069.3125 C 483.601562 1070.417969 483.300781 1071.398438 479.40625 1078.121094 C 475.71875 1084.496094 474.996094 1086.703125 474.839844 1092.132812 C 474.582031 1100.871094 476.332031 1102.589844 486.433594 1103.527344 L 493.972656 1104.230469 L 494.570312 1095.519531 C 495.023438 1088.898438 495.890625 1085.363281 498.183594 1080.777344 C 501.601562 1073.949219 507.425781 1069.148438 509.851562 1071.164062 C 511.972656 1072.921875 511.609375 1075.492188 508.679688 1079.464844 C 503.8125 1086.058594 502.71875 1099.746094 506.785156 1103.117188 C 510.933594 1106.558594 546.703125 1103.21875 565.535156 1097.632812 C 584.640625 1091.964844 593.625 1085.546875 601.714844 1071.785156 C 608.578125 1060.105469 615.042969 1039.9375 617.558594 1022.34375 C 619.589844 1008.136719 618.261719 976.761719 614.96875 961.296875 C 608.191406 929.417969 588.710938 883.996094 562.398438 838.710938 C 558.414062 831.851562 552.382812 821.460938 548.996094 815.621094 C 545.609375 809.777344 541.300781 802.609375 539.421875 799.691406 C 535.675781 793.855469 531.9375 788.015625 528.214844 782.167969 C 512.269531 757.152344 480.492188 712.746094 480.492188 715.480469 C 480.492188 718.132812 472.929688 732.71875 469.1875 737.285156 C 465.097656 742.277344 461.164062 743.261719 459.292969 739.761719 C 458 737.351562 458.640625 735.386719 462.636719 729.46875 C 472.664062 714.605469 481.164062 684.820312 483.6875 655.6875 C 484.820312 642.585938 484.738281 639.988281 482.777344 627.546875 C 479.070312 604.050781 478.449219 598.578125 476.757812 574.542969 C 475.855469 561.695312 474.335938 547.019531 473.382812 541.9375 C 471.941406 534.234375 471.886719 532.410156 473.058594 531 C 475.25 528.359375 479.699219 529.429688 481.410156 533.011719 C 483.800781 538.023438 486.644531 558.335938 487.839844 578.972656 C 489.871094 613.96875 494.765625 641.46875 502.21875 659.757812 C 509.949219 678.734375 517.96875 689.785156 527.707031 694.890625 C 534.789062 698.605469 545.972656 698.707031 555.15625 695.152344 C 577.132812 686.632812 600.386719 660.53125 606.378906 637.660156 C 608.664062 628.921875 608.03125 615.707031 604.996094 608.847656 C 601.8125 601.652344 591.976562 587.515625 574.46875 564.988281 C 530.6875 508.636719 507.390625 487.082031 483.730469 481.019531 C 475.96875 479.03125 469.960938 479.496094 463.117188 482.613281 C 460.46875 483.820312 457.535156 484.804688 456.59375 484.804688 C 455.648438 484.804688 451.480469 481.203125 447.324219 476.800781 C 432.722656 461.332031 415.070312 452.316406 387.035156 446.003906 C 375.949219 443.507812 352.011719 443.023438 339.496094 445.042969 M 389.734375 490.828125 C 385.65625 491.984375 382.785156 494.605469 382.785156 497.167969 C 382.785156 500.554688 386.734375 502.125 391.105469 500.476562 C 398.4375 497.710938 408.335938 504.585938 413.785156 516.234375 C 417.34375 523.835938 419.585938 525.316406 422.355469 521.898438 C 426.972656 516.199219 419.089844 499.804688 408.851562 493.804688 C 404.03125 490.980469 394.453125 489.488281 389.734375 490.828125 M 277.828125 494.371094 C 275.300781 495.519531 270.226562 499.460938 266.558594 503.132812 C 256.476562 513.210938 252.589844 522.550781 257.398438 525.125 C 261.1875 527.152344 262.636719 526.257812 266.109375 519.742188 C 270.320312 511.835938 278.714844 504.632812 286.351562 502.363281 C 292.667969 500.488281 294.636719 499.070312 294.636719 496.394531 C 294.636719 491.972656 285.53125 490.875 277.828125 494.371094 M 229.324219 507.71875 C 213.792969 515.8125 190.105469 541.117188 167.949219 573.277344 C 157.160156 588.941406 141.34375 614.054688 137.722656 621.273438 C 131.703125 633.269531 128.671875 644.660156 128.546875 655.789062 C 128.421875 667.039062 130.140625 672.3125 136.597656 680.464844 C 140.679688 685.621094 150.960938 692.507812 157.015625 694.140625 C 164.03125 696.035156 174.152344 695.523438 180.476562 692.957031 C 185.511719 690.914062 186.46875 689.980469 189.582031 684.117188 C 194.296875 675.222656 200.238281 667.136719 207.691406 659.480469 L 213.917969 653.085938 L 211.652344 648.859375 C 205.179688 636.796875 202.664062 618.941406 204.554688 598.496094 C 206.53125 577.148438 216.976562 543.191406 228.863281 519.496094 C 232.328125 512.582031 235.164062 506.726562 235.164062 506.488281 C 235.164062 505.542969 232.367188 506.136719 229.324219 507.71875 M 267.40625 550.601562 C 256.753906 553.140625 245.777344 565.683594 240.410156 581.449219 C 237.003906 591.457031 236.960938 608.472656 240.328125 615.964844 C 244.996094 626.355469 250.710938 630.300781 261.09375 630.300781 C 271.308594 630.300781 278.636719 627.1875 286.1875 619.636719 C 297.132812 608.691406 302.839844 592.9375 301.855469 576.410156 C 300.679688 556.730469 286.441406 546.0625 267.40625 550.601562 M 391.542969 551.84375 C 385.128906 553.007812 376.40625 559.1875 371.894531 565.757812 C 363.148438 578.492188 359.984375 589.21875 360.683594 603.785156 C 361.628906 623.546875 372.90625 636.214844 389.355469 635.988281 C 399.886719 635.847656 405.957031 632.09375 413.679688 620.957031 C 421.917969 609.078125 423.679688 603.132812 423.648438 587.289062 C 423.632812 580.234375 423.03125 572.550781 422.292969 570.074219 C 418.398438 557.011719 405.425781 549.320312 391.542969 551.84375 M 267.394531 562.292969 C 263.796875 564.101562 259.6875 567.121094 258.253906 569 C 246.195312 584.839844 243.984375 610.746094 254.019531 618.636719 C 257.417969 621.3125 263.015625 621.308594 268.917969 618.628906 L 273.46875 616.566406 L 269.214844 612.183594 C 264.628906 607.457031 263.277344 603.277344 264.289062 596.914062 C 265.472656 589.46875 269.863281 584.761719 276.449219 583.878906 C 280.332031 583.359375 281.128906 583.667969 284.253906 586.914062 C 286.167969 588.898438 288.273438 591.46875 288.929688 592.625 C 290.011719 594.53125 290.230469 594.335938 291.3125 590.476562 C 294.367188 579.582031 291.691406 567.039062 285.359375 562.53125 C 279.851562 558.609375 274.839844 558.542969 267.394531 562.292969 M 387.453125 564.722656 C 376.667969 571.980469 370.851562 584.390625 370.671875 600.535156 C 370.585938 608.421875 370.957031 610.371094 373.542969 615.640625 C 377.203125 623.09375 381.496094 626.050781 388.660156 626.050781 C 394.226562 626.050781 402.070312 622.269531 404.007812 618.652344 C 405.523438 615.816406 405.460938 615.746094 401.886719 616.269531 C 397.753906 616.875 392.894531 614.835938 390.773438 611.601562 C 387.8125 607.085938 386.921875 599.207031 388.6875 593.25 C 391.390625 584.160156 398.382812 581.109375 405.949219 585.722656 C 409.363281 587.804688 413.167969 594.410156 412.023438 596.265625 C 411.707031 596.773438 411.792969 598.066406 412.203125 599.140625 C 412.867188 600.863281 413.042969 600.78125 413.695312 598.441406 C 414.101562 596.980469 414.476562 591.722656 414.53125 586.757812 C 414.609375 579.328125 414.175781 576.761719 412.078125 572.257812 C 406.945312 561.234375 397.109375 558.222656 387.453125 564.722656 M 272.730469 632.335938 C 257.207031 636.539062 247.15625 643.808594 244.707031 652.601562 C 242.816406 659.402344 243.441406 667.675781 246.28125 673.367188 C 252.328125 685.488281 264.140625 693.925781 279.710938 697.242188 L 287.734375 698.949219 L 288.5625 706.308594 C 289.015625 710.355469 289.492188 716.710938 289.621094 720.425781 C 289.835938 726.554688 289.609375 727.367188 287.203125 729.101562 C 282.046875 732.820312 280.558594 732.605469 273.785156 727.167969 C 264.390625 719.628906 260.535156 718.082031 252.734375 718.707031 C 245.382812 719.296875 241.101562 721.171875 236.433594 725.839844 C 229.429688 732.84375 227.992188 744.464844 234.128906 744.464844 C 236.210938 744.464844 237.375 743.316406 239.710938 738.957031 C 242.980469 732.859375 248.53125 728.699219 253.226562 728.832031 C 257.574219 728.957031 266.496094 733.835938 269.125 737.527344 C 271.101562 740.304688 271.464844 742.5 271.789062 753.753906 C 272.203125 768.054688 273.226562 772.753906 276.742188 776.496094 C 280.242188 780.21875 284.128906 779.691406 289.878906 774.71875 C 295.917969 769.488281 299.542969 767.558594 304.9375 766.695312 C 310.277344 765.839844 313.957031 767.40625 326.515625 775.863281 C 347.273438 789.84375 360.210938 794.019531 376.496094 791.984375 C 407.875 788.070312 422.945312 764.472656 416.285156 729.675781 C 413.5 715.101562 407.582031 706.261719 397.042969 700.929688 C 391.730469 698.242188 390.515625 698.046875 381.453125 698.445312 C 372.765625 698.824219 370.9375 699.269531 365.675781 702.28125 C 362.402344 704.152344 356.714844 708.769531 353.035156 712.535156 C 340.359375 725.519531 331.488281 728.125 314.816406 723.757812 C 310.4375 722.609375 305.804688 721.660156 304.523438 721.652344 C 303.246094 721.640625 301.929688 721.199219 301.605469 720.671875 C 301.070312 719.808594 296.796875 699.828125 296.773438 698.085938 C 296.765625 697.691406 298.554688 696.796875 300.746094 696.097656 C 315.195312 691.476562 328.59375 680.710938 333.933594 669.417969 C 341.867188 652.648438 334.984375 638.511719 316.132812 632.867188 C 306.5625 630 282.445312 629.707031 272.734375 632.335938 M 272.753906 642.96875 C 265.191406 645.089844 256.914062 649.664062 255.347656 652.59375 C 254.746094 653.71875 253.960938 656.773438 253.601562 659.382812 C 252.324219 668.726562 259.078125 677.5625 272.285156 683.820312 C 278.359375 686.699219 280.3125 687.105469 287.734375 687.015625 C 294.851562 686.929688 297.398438 686.378906 303.417969 683.625 C 312.511719 679.457031 322.265625 670.359375 325.371094 663.144531 C 329.890625 652.636719 324.929688 646.214844 309.492188 642.574219 C 300.1875 640.382812 281.253906 640.585938 272.753906 642.96875 M 394.703125 679.742188 C 393.40625 680.652344 392.34375 682.3125 392.34375 683.433594 C 392.34375 685.925781 398.085938 689.121094 401.128906 688.328125 C 404.101562 687.550781 409.835938 690.117188 415.503906 694.765625 C 420.050781 698.488281 421.710938 701.328125 427.886719 715.964844 C 428.996094 718.597656 430.648438 720.621094 431.96875 720.964844 C 441.175781 723.371094 436.457031 702.207031 424.847656 689.015625 C 416.917969 680.007812 401.21875 675.179688 394.703125 679.742188 M 355.953125 751.75 C 348.484375 754.898438 345.535156 756.789062 339.664062 762.203125 C 336.957031 764.699219 335.355469 767 335.699219 767.898438 C 336.722656 770.558594 350.191406 778.71875 356.664062 780.59375 C 366.609375 783.476562 379.554688 782.464844 388.40625 778.105469 C 395.097656 774.8125 401.902344 768.652344 401.902344 765.890625 C 401.902344 763.386719 392.890625 755.730469 386.503906 752.804688 C 377.257812 748.574219 364.535156 748.132812 355.953125 751.75 M 693.015625 890.757812 C 693.191406 912.550781 692.390625 919.21875 687.902344 933.457031 C 679.597656 959.769531 659.957031 984.980469 638.28125 997.144531 L 629.46875 1002.089844 L 628.761719 1010.570312 C 628.082031 1018.742188 624.730469 1039.132812 623.210938 1044.363281 C 622.503906 1046.808594 622.628906 1046.875 626.523438 1046.144531 C 637.335938 1044.117188 659.574219 1031.230469 672.4375 1019.546875 C 703.597656 991.238281 719.988281 942.910156 711.574219 904.152344 C 710.734375 900.273438 708.519531 893.433594 706.65625 888.953125 C 703.347656 881.015625 696.03125 870.3125 693.910156 870.3125 C 693.238281 870.3125 692.910156 877.777344 693.015625 890.757812 M 316.660156 967.753906 C 316.441406 968.191406 316.175781 969.894531 316.074219 971.535156 C 315.914062 974.132812 315.242188 979.484375 312.117188 1003.0625 C 311.53125 1007.480469 311.910156 1008.53125 317.074219 1016.871094 C 320.148438 1021.835938 325.914062 1029.085938 329.890625 1032.984375 C 335.160156 1038.152344 337.117188 1040.824219 337.117188 1042.84375 C 337.117188 1046.710938 335.144531 1047.097656 325.398438 1045.132812 C 315.078125 1043.054688 308.433594 1042.949219 305.867188 1044.824219 C 304.710938 1045.671875 302.960938 1050.035156 301.464844 1055.8125 C 300.097656 1061.085938 297.582031 1069.238281 295.867188 1073.933594 L 292.75 1082.472656 L 298.210938 1082.914062 C 301.210938 1083.160156 307.035156 1083.167969 311.148438 1082.929688 L 318.632812 1082.5 L 321.675781 1076.6875 C 328.019531 1064.570312 338.550781 1057.023438 355.925781 1052.140625 C 367.910156 1048.769531 368.265625 1048.378906 371.796875 1034.605469 L 374.304688 1024.835938 L 371.296875 1022.179688 C 369.640625 1020.71875 363.875 1015.945312 358.480469 1011.574219 C 347.777344 1002.894531 334.953125 989.402344 324.410156 975.71875 C 317.308594 966.5 317.300781 966.492188 316.660156 967.75 M 307.453125 1023.773438 C 306.734375 1027.277344 305.921875 1031.101562 305.652344 1032.269531 C 305.195312 1034.226562 305.617188 1034.363281 311.050781 1034.027344 C 314.289062 1033.828125 316.941406 1033.492188 316.941406 1033.285156 C 316.941406 1033.078125 315.460938 1030.710938 313.652344 1028.035156 C 311.84375 1025.351562 310.003906 1021.863281 309.5625 1020.28125 C 308.855469 1017.730469 308.613281 1018.125 307.453125 1023.773438 " fill-opacity="1" fill-rule="evenodd"/></svg>